<svg id="Final" xmlns="http://www.w3.org/2000/svg" viewBox="0 0 215.25 215.24"><defs><style>.cls-1{fill:#01a34e;}.cls-2{fill:#38553f;}</style></defs><title>logo</title><path class="cls-1" d="M108.5,11.83a95.34,95.34,0,0,0-2.76,190.63c-.46-7.67-.94-15.33-1.66-23-.68-7.29-4.1-13.37-10.82-17.24,2.46,2.82,5.53,5.17,7.12,8.71,1.89,4.2,1.4,4.93-3.23,4.62-12.46-.84-23.65-12.48-24.9-26.17,14.28,2.36,29.4,3.11,32.5,21.88a66.15,66.15,0,0,0-1.55-18.37c-3.86-19.23-11.07-36.84-26.37-50.39-3.89-3.44-8-6.5-13.81-7.41,1.22,2.06,3.08,2.64,4.65,3.39,9.32,4.4,15.5,11.66,20.07,20.44,1,1.88,2.76,3.87,1.34,6-1.63,2.4-4.49,2.92-7.29,2.66-5.16-.48-9.74-2.64-14.31-4.91-19-9.43-25.65-27.83-34.73-45.17,9.35,3.11,18.94,3.26,28.1,5.48,11.36,2.75,20.94,8.47,27.87,18,3.75,5.13,4.57,11.33,6.85,17,1.09,2.73,1.41,5.92,4.6,8.54-.84-15.38,7.29-24.68,19.25-31.63,1.14-.67,3.28-2.59,3.26.81a145.59,145.59,0,0,1-.74,17.86c-1,7.43-3.93,14.12-11.18,18-4.28,2.27-5.17,1.58-5.45-3.06s2.06-9,3.21-14.34c-3.76,4.82-5,8.67-4.63,14.12,1.12,14.31,6.88,27.72,8.69,42.26,7.64-15.16,20.4-24.81,34.62-33-15.1,3.92-24.34,15.2-34.31,26.89-2.39-9.9.75-17.06,6.66-23.3,15.15-16,35.12-15.42,55.22-15.16-6.12,6.63-8.37,14.89-12,22.46-8.07,16.77-21.39,24.57-38.92,23.07-8.2-.7-10.47,1.61-11,9.8-.49,7.05-.3,14.16-.9,21.2a95.33,95.33,0,0,0-3.39-190.6Z" transform="translate(-0.04 -0.03)"/><g id="SquareLeaf"><path class="cls-2" d="M106.23,215.26a24.55,24.55,0,0,1-3.09-.35l-.66-.12-.72-.15-.92-.23L99.52,214l-1.35-.47-.89-.36-.75-.33-.87-.42-.76-.4-.69-.39-.75-.46-1.35-.91-.53-.39-.52-.41-.55-.45-.62-.54-.71-.66-.35-.34L72.9,191.56,39.24,157.91,22.46,141.13,11.8,130.46C7.48,126.15,3.4,122,1.42,116A26.4,26.4,0,0,1,0,107.66C0,94,11.1,85.57,19.91,76.76q8.41-8.43,16.84-16.84l3-3,7.75-7.75L58.06,38.61l11.4-11.39,10.3-10.3L87,9.65a32.56,32.56,0,0,1,10-7.38A26.87,26.87,0,0,1,108.26,0c7.6.17,14.1,3.66,19.38,8.93l8.22,8.23,11.65,11.65,9.62,9.62,2.62,2.61L164.61,46l11.17,11.16L188.1,69.43l10.39,10.4,7.62,7.62a30.68,30.68,0,0,1,7.24,10.33,26.74,26.74,0,0,1,1.78,12.91c-.78,6.78-4.16,12.34-8.9,17.08l-5.31,5.31-8.45,8.45L182,152.05l-11.51,11.51L159,175l-10.24,10.24-8,8-4.66,4.66-.76.76c-3,3-6,6.07-9,9a27,27,0,0,1-7.82,5.3c-2.62,1.17-6.07,2.42-9,2.25,2.78-9.54,2.6-19.44,3-29.28,0-1.57.13-3.13.24-4.7.57-8.19,2.84-10.5,11-9.8,17.53,1.5,30.85-6.3,38.92-23.07,3.65-7.57,5.9-15.83,12-22.46-20.1-.26-40.07-.86-55.22,15.16-5.91,6.24-9,13.4-6.66,23.3,10-11.69,19.21-23,34.31-26.89-14.22,8.2-27,17.85-34.62,33-1.81-14.54-7.57-27.95-8.69-42.26-.42-5.45.87-9.3,4.63-14.12-1.15,5.34-3.49,9.56-3.21,14.34s1.17,5.33,5.45,3.06c7.25-3.85,10.19-10.54,11.18-18a145.59,145.59,0,0,0,.74-17.86c0-3.4-2.12-1.48-3.26-.81-12,7-20.09,16.25-19.25,31.63-3.19-2.62-3.51-5.81-4.6-8.54-2.28-5.66-3.1-11.86-6.85-17-6.93-9.51-16.51-15.23-27.87-18-9.16-2.22-18.75-2.37-28.1-5.48,9.08,17.34,15.76,35.74,34.73,45.17,4.57,2.27,9.15,4.43,14.31,4.91,2.8.26,5.66-.26,7.29-2.66,1.42-2.1-.36-4.09-1.34-6-4.57-8.78-10.75-16-20.07-20.44-1.57-.75-3.43-1.33-4.65-3.39,5.79.91,9.92,4,13.81,7.41,15.3,13.55,22.51,31.16,26.37,50.39a66.15,66.15,0,0,1,1.55,18.37c-3.1-18.77-18.22-19.52-32.5-21.88,1.25,13.69,12.44,25.33,24.9,26.17,4.63.31,5.12-.42,3.23-4.62-1.59-3.54-4.66-5.89-7.12-8.71,6.72,3.87,10.14,9.95,10.82,17.24,1.11,11.87,1.66,23.79,2.45,35.69v.1Z" transform="translate(-0.04 -0.03)"/></g></svg>