<svg id="Layer_1" data-name="Layer 1" xmlns="http://www.w3.org/2000/svg" viewBox="0 0 212.41 212.71"><defs><style>.cls-1{fill:#01a34e;}.cls-2{fill:#38553f;}.cls-3{fill:#fff;}</style></defs><title>logo _1</title><circle class="cls-1" cx="106.04" cy="109.7" r="95.33"/><rect class="cls-2" x="22.46" y="22.46" width="167.82" height="167.82" rx="30" ry="30" transform="translate(-44.23 106.2) rotate(-45)"/><path class="cls-3" d="M109.24,212.88c-.79-11.9-1.34-23.82-2.45-35.69-.68-7.29-4.1-13.36-10.82-17.24,2.46,2.82,5.53,5.18,7.12,8.72,1.89,4.2,1.4,4.93-3.23,4.62-12.46-.84-23.65-12.48-24.9-26.17,14.27,2.36,29.4,3.11,32.5,21.88a66.12,66.12,0,0,0-1.55-18.37c-3.86-19.24-11.07-36.84-26.37-50.39-3.89-3.44-8-6.5-13.81-7.41,1.22,2.06,3.07,2.64,4.65,3.39,9.31,4.4,15.5,11.66,20.07,20.44,1,1.88,2.76,3.86,1.33,6-1.62,2.4-4.48,2.92-7.28,2.66-5.17-.48-9.74-2.64-14.31-4.91-19-9.44-25.65-27.84-34.73-45.17,9.34,3.11,18.94,3.25,28.1,5.47,11.36,2.76,20.94,8.48,27.87,18,3.74,5.14,4.57,11.34,6.85,17,1.09,2.73,1.41,5.92,4.6,8.53-.84-15.37,7.29-24.67,19.25-31.63,1.14-.66,3.28-2.58,3.26.82a143.63,143.63,0,0,1-.75,17.86c-1,7.43-3.92,14.12-11.17,18-4.28,2.27-5.17,1.58-5.45-3.06s2.06-9,3.21-14.34c-3.76,4.82-5,8.67-4.63,14.12,1.11,14.31,6.88,27.71,8.69,42.26,7.64-15.17,20.39-24.81,34.62-33-15.11,3.92-24.34,15.2-34.31,26.89-2.39-9.9.75-17.06,6.66-23.31,15.15-16,35.12-15.42,55.22-15.16-6.12,6.64-8.37,14.9-12,22.47-8.07,16.76-21.39,24.57-38.92,23.07-8.21-.7-10.47,1.6-11,9.8-.79,11.33.18,22.84-3.2,33.94" transform="translate(-0.17 -0.17)"/></svg>